<?xml version="1.0" encoding="UTF-8"?>
<svg width="670px" height="224px" viewBox="0 0 670 224" version="1.1" xmlns="http://www.w3.org/2000/svg" xmlns:xlink="http://www.w3.org/1999/xlink">
    <!-- Generator: Sketch 50.2 (55047) - http://www.bohemiancoding.com/sketch -->
    <title>confetti</title>
    <desc>Created with Sketch.</desc>
    <defs></defs>
    <g id="Page-1" stroke="none" stroke-width="1" fill="none" fill-rule="evenodd" opacity="0.33">
        <g id="Artboard-Copy-24" transform="translate(-1153.000000, -563.000000)">
            <g id="confetti" transform="translate(1122.527344, 549.033546)">
                <rect id="Rectangle" fill-opacity="0" fill="#FFFFFF" x="0" y="0" width="730" height="271.647581"></rect>
                <path d="M110.546283,56.5145908 C110.10569,56.8946669 109.370337,56.9117842 108.903827,56.5528235 C108.437317,56.1938627 108.416307,55.5947549 108.8569,55.2146788 L112.588456,51.9956656 C113.046954,51.6001438 113.819341,51.6001438 114.277839,51.9956656 L116.9452,54.2966547 L119.612561,51.9956656 C120.071059,51.6001438 120.843446,51.6001438 121.301944,51.9956656 L123.969305,54.2966547 L126.636666,51.9956656 C127.095164,51.6001438 127.867551,51.6001438 128.326049,51.9956656 L130.99341,54.2966547 L133.660771,51.9956656 C134.119269,51.6001438 134.891656,51.6001438 135.350154,51.9956656 L139.08171,55.2146788 C139.522303,55.5947549 139.501293,56.1938627 139.034783,56.5528235 C138.568272,56.9117842 137.83292,56.8946669 137.392326,56.5145908 L134.505462,54.0242479 L131.838102,56.3252371 C131.379604,56.7207588 130.607216,56.7207588 130.148718,56.3252371 L127.481357,54.0242479 L124.813997,56.3252371 C124.355499,56.7207588 123.583111,56.7207588 123.124613,56.3252371 L120.457252,54.0242479 L117.789892,56.3252371 C117.331394,56.7207588 116.559006,56.7207588 116.100508,56.3252371 L113.433147,54.0242479 L110.546283,56.5145908 Z" id="Combined-Shape" fill-opacity="0.458361639" fill="#4F9E27" fill-rule="nonzero" transform="translate(123.969305, 54.255129) scale(-1, 1) rotate(40.000000) translate(-123.969305, -54.255129) "></path>
                <path d="M539.156097,84.8820083 C535.822167,84.8820083 533.119484,82.1793246 533.119484,78.8453954 C533.119484,75.5114661 535.822167,72.8087825 539.156097,72.8087825 C542.490026,72.8087825 545.192709,75.5114661 545.192709,78.8453954 C545.192709,82.1793246 542.490026,84.8820083 539.156097,84.8820083 Z M539.156097,82.4673631 C541.156454,82.4673631 542.778064,80.8457529 542.778064,78.8453954 C542.778064,76.8450378 541.156454,75.2234276 539.156097,75.2234276 C537.155739,75.2234276 535.534129,76.8450378 535.534129,78.8453954 C535.534129,80.8457529 537.155739,82.4673631 539.156097,82.4673631 Z" id="Oval-2" fill-opacity="0.458361639" fill="#4F9E27" fill-rule="nonzero"></path>
                <path d="M304.349994,19.8943761 L308.217706,23.7620874 C308.674613,24.2189948 308.674613,24.959788 308.217706,25.4166954 C307.760798,25.8736027 307.020005,25.8736027 306.563098,25.4166954 L302.695386,21.5489841 L298.827675,25.4166954 C298.370768,25.8736027 297.629974,25.8736027 297.173067,25.4166954 C296.71616,24.959788 296.71616,24.2189948 297.173067,23.7620874 L301.040778,19.8943761 L297.173067,16.0266648 C296.71616,15.5697575 296.71616,14.8289643 297.173067,14.3720569 C297.629974,13.9151495 298.370768,13.9151495 298.827675,14.3720569 L302.695386,18.2397682 L306.563098,14.3720569 C307.020005,13.9151495 307.760798,13.9151495 308.217706,14.3720569 C308.674613,14.8289643 308.674613,15.5697575 308.217706,16.0266648 L304.349994,19.8943761 Z" id="Combined-Shape" fill-opacity="0.458361639" fill="#4F9E27" fill-rule="nonzero"></path>
                <path d="M41.417904,229.221552 L46.604994,234.408642 C47.2177646,235.021413 47.2177646,236.01491 46.604994,236.627681 C45.9922235,237.240452 44.9987261,237.240452 44.3859555,236.627681 L39.1988655,231.440591 L34.0117755,236.627681 C33.3990049,237.240452 32.4055076,237.240452 31.792737,236.627681 C31.1799664,236.01491 31.1799664,235.021413 31.792737,234.408642 L36.979827,229.221552 L31.792737,224.034462 C31.1799664,223.421692 31.1799664,222.428194 31.792737,221.815424 C32.4055076,221.202653 33.3990049,221.202653 34.0117755,221.815424 L39.1988655,227.002514 L44.3859555,221.815424 C44.9987261,221.202653 45.9922235,221.202653 46.604994,221.815424 C47.2177646,222.428194 47.2177646,223.421692 46.604994,224.034462 L41.417904,229.221552 Z" id="Combined-Shape" fill-opacity="0.458361639" fill="#4F9E27" fill-rule="nonzero"></path>
                <path d="M612.39788,221.355846 L616.390705,225.348671 C616.862392,225.820359 616.862392,226.585115 616.390705,227.056803 C615.919017,227.52849 615.154261,227.52849 614.682573,227.056803 L610.689748,223.063978 L606.696923,227.056803 C606.225235,227.52849 605.460478,227.52849 604.988791,227.056803 C604.517103,226.585115 604.517103,225.820359 604.988791,225.348671 L608.981616,221.355846 L604.988791,217.363021 C604.517103,216.891333 604.517103,216.126577 604.988791,215.654889 C605.460478,215.183202 606.225235,215.183202 606.696923,215.654889 L610.689748,219.647714 L614.682573,215.654889 C615.154261,215.183202 615.919017,215.183202 616.390705,215.654889 C616.862392,216.126577 616.862392,216.891333 616.390705,217.363021 L612.39788,221.355846 Z" id="Combined-Shape" fill-opacity="0.458361639" fill="#4F9E27" fill-rule="nonzero"></path>
                <path d="M689.593834,90.7636925 C683.592762,90.7636925 678.727931,85.8988619 678.727931,79.8977893 C678.727931,73.8967166 683.592762,69.0318861 689.593834,69.0318861 C695.594907,69.0318861 700.459737,73.8967166 700.459737,79.8977893 C700.459737,85.8988619 695.594907,90.7636925 689.593834,90.7636925 Z M689.593834,88.3490474 C694.261335,88.3490474 698.045092,84.5652902 698.045092,79.8977893 C698.045092,75.2302883 694.261335,71.4465312 689.593834,71.4465312 C684.926333,71.4465312 681.142576,75.2302883 681.142576,79.8977893 C681.142576,84.5652902 684.926333,88.3490474 689.593834,88.3490474 Z" id="Oval-2" fill-opacity="0.458361639" fill="#4F9E27" fill-rule="nonzero"></path>
                <path d="M186.194218,198.469073 C183.193681,198.469073 180.761266,196.036657 180.761266,193.036121 C180.761266,190.035585 183.193681,187.60317 186.194218,187.60317 C189.194754,187.60317 191.627169,190.035585 191.627169,193.036121 C191.627169,196.036657 189.194754,198.469073 186.194218,198.469073 Z M186.194218,196.054428 C187.861182,196.054428 189.212524,194.703086 189.212524,193.036121 C189.212524,191.369157 187.861182,190.017815 186.194218,190.017815 C184.527253,190.017815 183.175911,191.369157 183.175911,193.036121 C183.175911,194.703086 184.527253,196.054428 186.194218,196.054428 Z" id="Oval-2" fill-opacity="0.458361639" fill="#4F9E27" fill-rule="nonzero"></path>
                <path d="M380.107183,176.414036 C379.649352,176.898798 378.88523,176.92063 378.400468,176.462799 C377.915706,176.004968 377.893874,175.240846 378.351704,174.756084 L382.772362,170.075387 C383.248799,169.570925 384.051405,169.570925 384.527841,170.075387 L387.810721,173.551377 L391.093601,170.075387 C391.570037,169.570925 392.372644,169.570925 392.84908,170.075387 L396.13196,173.551377 L399.41484,170.075387 C399.891276,169.570925 400.693882,169.570925 401.170319,170.075387 L404.453199,173.551377 L407.736079,170.075387 C408.212515,169.570925 409.015121,169.570925 409.491557,170.075387 L413.912215,174.756084 C414.370046,175.240846 414.348214,176.004968 413.863452,176.462799 C413.37869,176.92063 412.614567,176.898798 412.156737,176.414036 L408.613818,172.66271 L405.330938,176.138701 C404.854502,176.643163 404.051896,176.643163 403.575459,176.138701 L400.292579,172.66271 L397.009699,176.138701 C396.533263,176.643163 395.730657,176.643163 395.25422,176.138701 L391.971341,172.66271 L388.688461,176.138701 C388.212024,176.643163 387.409418,176.643163 386.932982,176.138701 L383.650102,172.66271 L380.107183,176.414036 Z" id="Combined-Shape" fill-opacity="0.458361639" fill="#4F9E27" fill-rule="nonzero" transform="translate(396.131960, 173.244713) rotate(40.000000) translate(-396.131960, -173.244713) "></path>
            </g>
        </g>
    </g>
</svg>