<?xml version="1.0" encoding="UTF-8"?>
<svg width="347px" height="56px" viewBox="0 0 347 56" version="1.1" xmlns="http://www.w3.org/2000/svg" xmlns:xlink="http://www.w3.org/1999/xlink">
    <!-- Generator: Sketch 49.3 (51167) - http://www.bohemiancoding.com/sketch -->
    <title>Group</title>
    <desc>Created with Sketch.</desc>
    <defs>
        <linearGradient x1="0%" y1="0%" x2="83.3762984%" y2="100%" id="linearGradient-1">
            <stop stop-color="#B4EC51" offset="0%"></stop>
            <stop stop-color="#429321" offset="100%"></stop>
        </linearGradient>
    </defs>
    <g id="Page-1" stroke="none" stroke-width="1" fill="none" fill-rule="evenodd">
        <g id="l2" transform="translate(-49.000000, -41.000000)">
            <g id="Group" transform="translate(49.000000, 40.000000)">
                <g id="Fill-22-Copy-+-Path-17" transform="translate(0.500000, 0.594444)" fill="url(#linearGradient-1)" fill-rule="nonzero">
                    <path d="M40.7484524,0.940538574 L23.8079696,28.9501013 L13.9739035,19.6153255 L10.8861419,22.1947671 L22.7316589,33.4388692 L24.7443064,35.3493316 L26.1392815,33.0430597 L44.4983056,2.69061719 C45.4549758,3.76044767 46.0690388,5.27342698 46.193523,7.09962498 L47.5463891,27.1719866 L47.576162,27.1241212 L48.9949756,48.2831101 L38.8459598,41.4625729 L9.26006259,47.3310701 C5.70381664,48.0003054 2.84148712,45.5802961 2.45786345,41.5747374 L0.043397895,16.5432164 C-0.351740544,12.4004758 1.98696994,8.86179014 5.60806223,8.13874321 L39.2931452,1.06210732 C39.7943865,0.962893733 40.2809872,0.923695361 40.7484524,0.940538574 Z M8.34685829,55.587002 C7.12386573,55.8333591 5.93414811,55.0345114 5.6895496,53.8027257 C5.44495109,52.57094 6.23809617,51.3726684 7.46108873,51.1263113 L37.1343683,45.1489859 C38.3573608,44.9026288 39.5470785,45.7014765 39.791677,46.9332622 C40.0362755,48.1650479 39.2431304,49.3633195 38.0201378,49.6096766 L8.34685829,55.587002 Z" id="Combined-Shape"></path>
                </g>
                <path d="M99.6130769,30.8382297 C99.6130769,28.6484068 99.0389155,26.8210116 97.8905753,25.3559892 C96.7422351,23.8909668 95.1269275,22.7729402 93.0446039,22.0018758 C92.4627782,21.7859777 91.9039277,21.585504 91.3680356,21.4004485 C90.8321435,21.2153931 90.303915,21.0380509 89.7833341,20.8684167 C89.2627532,20.6987826 88.7345246,20.5214404 88.1986326,20.336385 C87.6627405,20.1513295 87.088579,19.9354347 86.4761309,19.6886941 C84.9143882,19.1026851 83.6435775,18.3162112 82.6636605,17.3292488 C81.6837436,16.3422863 81.1937924,15.0314965 81.1937924,13.39684 C81.1937924,12.3481924 81.3698686,11.4152184 81.7220263,10.5978901 C82.0741839,9.78056185 82.5641351,9.09432482 83.1918944,8.53915844 C83.8196537,7.98399207 84.5545804,7.56762353 85.3966965,7.29004034 C86.2388126,7.01245715 87.1345046,6.87366764 88.0837991,6.87366764 C89.2780729,6.87366764 90.365152,7.12040455 91.3450689,7.61388578 C92.3249859,8.107367 93.1977113,8.74734086 93.9632715,9.53382656 C94.7288316,10.3203123 95.4025144,11.2147336 95.9843401,12.2171173 C96.5661658,13.219501 97.0408059,14.2295803 97.4082748,15.2473853 L97.913542,15.2473853 L97.913542,6.68861311 L97.4082748,6.68861311 C97.1632956,7.05872403 96.8953535,7.42882939 96.6044407,7.79894031 C96.3135278,8.16905123 96.1221407,8.35410391 96.0302735,8.35410391 C95.9996511,8.35410391 95.8235749,8.23844598 95.5020396,8.00712666 C95.1805044,7.77580734 94.7058642,7.5213599 94.0781049,7.24377671 C93.4503456,6.96619352 92.6465195,6.71174608 91.6666026,6.48042676 C90.6866856,6.24910743 89.5077407,6.13344951 88.1297325,6.13344951 C86.659857,6.13344951 85.258903,6.32621272 83.9268284,6.71174493 C82.5947538,7.09727713 81.4234644,7.69098782 80.412925,8.49289481 C79.4023856,9.2948018 78.5985596,10.2971705 78.0014227,11.500031 C77.4042858,12.7028915 77.1057218,14.1370498 77.1057218,15.8025489 C77.1057218,16.7895113 77.2741425,17.7224853 77.610989,18.6014987 C77.9478354,19.4805121 78.3918536,20.2824071 78.9430569,21.0072076 C79.4942602,21.7320082 80.1373211,22.3642715 80.8722588,22.9040166 C81.6071965,23.4437617 82.3727451,23.8678408 83.1689277,24.1762665 C83.873243,24.4538497 84.4780264,24.677455 84.9832961,24.8470892 C85.4885658,25.0167234 85.9785169,25.186355 86.4531642,25.3559892 C86.9278115,25.5256234 87.4407291,25.7029655 87.9919324,25.888021 C88.5431356,26.0730764 89.1861965,26.3043923 89.9211342,26.5819755 C90.6560719,26.8595587 91.3450657,27.1679798 91.9881362,27.5072481 C92.6312067,27.8465165 93.1900572,28.2551745 93.6647045,28.7332344 C94.1393518,29.2112944 94.5144706,29.7741629 94.7900723,30.421857 C95.0656739,31.0695512 95.2034727,31.8251829 95.2034727,32.6887751 C95.2034727,34.8169129 94.4991679,36.5055186 93.0905373,37.7546429 C91.6819067,39.0037673 89.8445899,39.6283201 87.578532,39.6283201 C86.7823494,39.6283201 85.9555569,39.4895306 85.0981295,39.2119474 C84.2407022,38.9343642 83.5517084,38.6567852 83.0311275,38.379202 C82.5105467,38.1016188 81.9670071,37.7006713 81.4004926,37.1763475 C80.8339781,36.6520237 80.2980941,36.042892 79.7928244,35.348934 C79.2875547,34.654976 78.8205701,33.9147653 78.3918564,33.1282796 C77.9631427,32.3417939 77.6109903,31.5321884 77.3353887,30.6994388 L76.8760549,30.6994388 L77.0138551,39.9059019 L77.4272555,39.9059019 C77.6722347,39.5666336 77.9478322,39.2119492 78.2540563,38.8418383 C78.5602803,38.4717274 78.7593229,38.2866747 78.8511902,38.2866747 C78.9430574,38.2866747 79.1650665,38.3946221 79.5172241,38.6105202 C79.8693818,38.8264182 80.3976104,39.0654446 81.1019257,39.3276065 C81.806241,39.5897684 82.6942774,39.8133737 83.7660616,39.9984292 C84.8378458,40.1834846 86.1239675,40.276011 87.6244653,40.276011 C89.3699424,40.276011 90.9775946,40.0755372 92.44747,39.6745837 C93.9173454,39.2736302 95.1805007,38.656788 96.2369737,37.8240384 C97.2934466,36.9912888 98.1202392,35.9889201 98.7173761,34.8169022 C99.314513,33.6448843 99.6130769,32.3186734 99.6130769,30.8382297 L99.6130769,30.8382297 Z M127.769236,38.7955747 L127.769236,38.5179929 C127.401767,38.36378 126.950093,38.1633063 126.414201,37.9165657 C125.878309,37.669825 125.472569,37.4693513 125.196967,37.3151384 C124.98261,37.1609255 124.852467,37.022136 124.806533,36.8987657 C124.7606,36.7753954 124.737633,36.5903427 124.737633,36.3436021 L124.737633,18.0694669 L117.020826,18.0694669 L117.020826,18.5783669 C117.694519,18.640052 118.345235,18.7171573 118.972994,18.8096851 C119.600753,18.9022128 120.09836,19.0255812 120.465829,19.1797941 C120.649563,19.4265347 120.772051,19.7889296 120.833296,20.2669895 C120.894541,20.7450494 120.925163,21.1382864 120.925163,21.4467122 L120.925163,34.6318477 C120.649561,35.0019586 120.350997,35.3566429 120.029462,35.6959113 C119.707927,36.0351796 119.355774,36.3358902 118.972994,36.5980521 C118.590214,36.860214 118.161507,37.0761088 117.68686,37.245743 C117.212212,37.4153771 116.653362,37.500193 116.010291,37.500193 C114.326059,37.500193 113.177736,37.0144297 112.565288,36.0428885 C111.95284,35.0713473 111.64662,33.5677943 111.64662,31.5321842 L111.64662,18.0694669 L104.526947,18.0694669 L104.526947,18.5783669 C104.802548,18.6092095 105.093457,18.6323411 105.399681,18.6477623 C105.705905,18.6631836 105.996814,18.7017363 106.272415,18.7634214 C106.548017,18.8251066 106.800648,18.9176329 107.030316,19.0410032 C107.259984,19.1643735 107.43606,19.3648473 107.55855,19.6424305 C107.619795,19.7349582 107.658072,19.8814582 107.673383,20.081935 C107.688694,20.2824117 107.711661,20.4983065 107.742283,20.7296258 C107.772906,20.9609452 107.788217,21.1845505 107.788217,21.4004485 L107.788217,21.9093485 L107.788217,33.197675 C107.788217,35.4491831 108.255201,37.1609205 109.189185,38.3329384 C110.123168,39.5049563 111.570055,40.0909564 113.529889,40.0909564 C114.387316,40.0909564 115.191142,39.9521669 115.941391,39.6745837 C116.69164,39.3970005 117.372978,39.0191846 117.985427,38.5411247 C118.597875,38.0630648 119.14907,37.5310383 119.639028,36.9450294 C120.128987,36.3590204 120.542383,35.8038624 120.879229,35.2795386 L120.925163,35.3258022 L120.925163,39.9984292 L121.246696,39.9984292 L127.769236,38.7955747 Z M148.162654,20.0588032 C148.162654,19.3494239 147.894712,18.7634237 147.35882,18.3007851 C146.822928,17.8381464 146.172212,17.6068306 145.406652,17.6068306 C144.457357,17.6068306 143.615254,17.8689886 142.880316,18.3933124 C142.145378,18.9176362 141.517628,19.542189 140.997047,20.2669895 C140.476466,20.9917901 140.047759,21.7088692 139.710913,22.4182485 C139.374066,23.1276277 139.129091,23.6673647 138.975979,24.0374756 L138.884112,24.0374756 L138.975979,17.6068306 L138.700378,17.6068306 L132.683106,19.9662759 L132.683106,20.2438577 C133.050575,20.3980706 133.418038,20.5908338 133.785507,20.8221531 C134.152976,21.0534724 134.474506,21.2462356 134.750108,21.4004485 C134.964465,21.5546614 135.094608,21.6934509 135.140542,21.8168212 C135.186475,21.9401915 135.209442,22.1252442 135.209442,22.3719848 L135.209442,38.0090929 C135.209442,38.5025741 134.956811,38.8572585 134.451541,39.0731565 C133.946271,39.2890545 133.341488,39.427844 132.637173,39.4895292 L132.637173,39.9521655 L142.926249,39.9521655 L142.926249,39.4895292 C142.620025,39.427844 142.260217,39.3892914 141.846815,39.3738701 C141.433412,39.3584488 141.035327,39.3198962 140.652547,39.258211 C140.269767,39.1965259 139.92527,39.0885785 139.619046,38.9343656 C139.312822,38.7801527 139.113779,38.5642579 139.021912,38.2866747 L139.021912,24.9627483 C139.205646,24.5001097 139.42,24.0143464 139.664979,23.5054439 C139.909959,22.9965413 140.185556,22.5416202 140.49178,22.1406667 C140.798004,21.7397132 141.12719,21.4081604 141.479348,21.1459985 C141.831505,20.8838366 142.191313,20.7527577 142.558782,20.7527577 C142.987496,20.7527577 143.324337,20.8375735 143.569316,21.0072076 C143.814296,21.1768418 144.04396,21.369605 144.258317,21.5855031 C144.472674,21.8014011 144.725305,21.9941643 145.016218,22.1637985 C145.307131,22.3334327 145.697561,22.4182485 146.187519,22.4182485 C146.7081,22.4182485 147.167429,22.1946431 147.56552,21.7474258 C147.963612,21.3002084 148.162654,20.7373398 148.162654,20.0588032 L148.162654,20.0588032 Z M173.103477,18.5783669 L173.103477,18.0694669 L164.192402,18.0694669 L164.192402,18.5321033 C164.468003,18.5629458 164.789534,18.5783669 165.157003,18.5783669 C165.524471,18.5783669 165.876624,18.6246301 166.21347,18.7171578 C166.550317,18.8096855 166.83357,18.9716066 167.063238,19.2029259 C167.292906,19.4342453 167.407738,19.765798 167.407738,20.1975941 C167.407738,20.4751773 167.216351,21.1845459 166.833571,22.3257212 C166.450791,23.4668965 165.983806,24.7931074 165.432603,26.3043937 C164.881399,27.8156799 164.299583,29.3577856 163.687134,30.930757 C163.074686,32.5037284 162.538802,33.8607814 162.079466,35.0019568 C161.803865,34.2617349 161.467023,33.3981557 161.068932,32.4111933 C160.670841,31.4242308 160.2651,30.4064411 159.851697,29.3577935 C159.438295,28.3091459 159.032554,27.260514 158.634463,26.2118664 C158.236372,25.1632188 157.876564,24.2071133 157.555028,23.3435211 C157.233493,22.479929 156.973207,21.7551393 156.774161,21.1691304 C156.575115,20.5831214 156.475594,20.213016 156.475594,20.0588032 C156.475594,19.7195348 156.605737,19.4650874 156.866028,19.2954532 C157.126318,19.125819 157.440193,18.9947401 157.807662,18.9022123 C158.175131,18.8096846 158.565561,18.7402898 158.978963,18.694026 C159.392366,18.6477621 159.736863,18.6092095 160.012464,18.5783669 L160.012464,18.0694669 L148.94252,18.0694669 L148.94252,18.5783669 C149.95306,18.640052 150.649709,18.7865521 151.032489,19.0178714 C151.415269,19.2491907 151.698522,19.457375 151.882256,19.6424305 C152.035368,19.9200137 152.203789,20.274698 152.387523,20.706494 C152.571258,21.1382901 152.75499,21.5855008 152.938724,22.0481394 C153.122458,22.510778 153.298535,22.9502782 153.466958,23.366653 C153.635381,23.7830277 153.765524,24.1145805 153.857392,24.3613211 C154.500462,26.0576628 155.082279,27.5843474 155.60286,28.9414208 C156.123441,30.2984941 156.613392,31.5707313 157.072728,32.7581705 C157.532064,33.9456097 157.976082,35.102189 158.404796,36.227943 C158.83351,37.3536971 159.292839,38.548829 159.782797,39.8133746 C159.81342,39.8750598 159.859353,39.9444545 159.920597,40.021561 C159.981842,40.0986674 160.073708,40.1372201 160.196198,40.1372201 C160.410555,40.1372201 160.563664,40.0446937 160.655531,39.8596383 C160.839266,39.4586848 161.000031,39.1040005 161.137832,38.7955747 C161.275633,38.4871489 161.421087,38.1633067 161.574199,37.8240384 C161.727311,37.48477 161.888076,37.1223752 162.0565,36.736843 C162.224923,36.3513108 162.431621,35.8809686 162.6766,35.3258022 C163.105314,34.246312 163.572298,33.0588906 164.077568,31.7635024 C164.582838,30.4681142 165.095755,29.1727454 165.616336,27.8773572 C166.136917,26.581969 166.634524,25.3482844 167.109171,24.1762665 C167.583818,23.0042486 168.00487,21.9864589 168.372339,21.1228667 C168.617318,20.5677004 168.938849,20.1204897 169.33694,19.7812214 C169.735031,19.441953 170.163738,19.1875056 170.623074,19.0178714 C171.082411,18.8482372 171.534084,18.7325793 171.978109,18.6708942 C172.422134,18.609209 172.797253,18.5783669 173.103477,18.5783669 L173.103477,18.5783669 Z M193.450962,32.9200932 L193.083495,32.827566 C192.716026,33.9687413 191.958133,34.9325574 190.809793,35.7190431 C189.661452,36.5055288 188.321742,36.8987657 186.790622,36.8987657 C185.381991,36.8987657 184.141803,36.6366078 183.070018,36.112284 C181.998234,35.5879602 181.110198,34.870881 180.405882,33.961025 C179.701567,33.051169 179.165683,32.0025371 178.798214,30.8150979 C178.430745,29.6276587 178.247014,28.3862637 178.247014,27.0908754 C178.247014,26.7516071 178.262325,26.4200544 178.292947,26.0962073 C178.323569,25.7723603 178.33888,25.4870707 178.33888,25.2403301 L193.083495,25.2403301 C192.991627,23.9449419 192.700719,22.8192047 192.210761,21.8630849 C191.720802,20.906965 191.085397,20.1127806 190.304525,19.4805077 C189.523654,18.8482349 188.604996,18.3778927 187.548523,18.0694669 C186.49205,17.7610412 185.366693,17.6068306 184.172419,17.6068306 C182.702544,17.6068306 181.362834,17.9229623 180.153249,18.5552351 C178.943664,19.1875079 177.917829,20.0125344 177.075713,21.0303395 C176.233596,22.0481445 175.58288,23.1970132 175.123544,24.4769802 C174.664208,25.7569471 174.434543,27.0446053 174.434543,28.3399935 C174.434543,29.9438075 174.679519,31.4627816 175.169477,32.8969614 C175.659436,34.3311412 176.356085,35.5802468 177.259446,36.6443157 C178.162807,37.7083846 179.257542,38.5334112 180.543683,39.1194201 C181.829824,39.7054291 183.253744,39.9984292 184.815487,39.9984292 C186.071005,39.9984292 187.211673,39.7671133 188.237523,39.3044747 C189.263374,38.841836 190.143755,38.2558358 190.878693,37.5464566 C191.61363,36.8370773 192.195447,36.058314 192.624161,35.2101431 C193.052875,34.3619722 193.328472,33.5986299 193.450962,32.9200932 L193.450962,32.9200932 Z M188.53609,22.5570394 C188.53609,22.9888354 188.482502,23.3126776 188.375323,23.5285757 C188.268145,23.7444737 188.10738,23.9757896 187.893023,24.2225302 C187.586799,24.3459005 187.234647,24.4230058 186.836555,24.4538483 C186.438464,24.4846909 186.009757,24.500112 185.550421,24.500112 C184.846105,24.500112 184.203045,24.5078225 183.621219,24.5232438 C183.039393,24.5386651 182.480543,24.5540861 181.944651,24.5695074 C181.408758,24.5849287 180.865219,24.5926392 180.314016,24.5926392 L178.430747,24.5926392 C178.491992,24.2225283 178.660413,23.6905019 178.936014,22.9965439 C179.211616,22.3025859 179.602046,21.6163489 180.107315,20.9378122 C180.612585,20.2592755 181.209713,19.6655648 181.898717,19.1566623 C182.587721,18.6477598 183.360925,18.3933124 184.218353,18.3933124 C185.535116,18.3933124 186.583918,18.8019704 187.364789,19.6192986 C188.14566,20.4366269 188.53609,21.415864 188.53609,22.5570394 L188.53609,22.5570394 Z M216.646316,18.5783669 L216.646316,18.0694669 L209.572576,18.0694669 L209.572576,18.5783669 C209.848177,18.6092095 210.139086,18.6400516 210.44531,18.6708942 C210.751534,18.7017367 211.034787,18.763421 211.295077,18.8559487 C211.555368,18.9484764 211.762066,19.0795554 211.915178,19.2491896 C212.06829,19.4188237 212.144845,19.6424291 212.144845,19.9200123 C212.144845,20.1050677 212.045324,20.57541 211.846278,21.3310531 C211.647232,22.0866962 211.394601,22.9965386 211.088377,24.0606075 C210.782153,25.1246763 210.445312,26.258124 210.077843,27.4609845 C209.710374,28.663845 209.358222,29.8127137 209.021375,30.9076252 C208.684529,32.0025367 208.39362,32.9509317 208.148641,33.7528386 C207.903662,34.5547456 207.735241,35.0790616 207.643374,35.3258022 C207.367772,34.5855803 207.046242,33.7142906 206.678773,32.7119069 C206.311304,31.7095232 205.936185,30.6686018 205.553405,29.5891116 C205.170625,28.5096215 204.787851,27.437858 204.405071,26.3737891 C204.022291,25.3097202 203.677794,24.3304831 203.37157,23.4360484 C203.065346,22.5416137 202.82037,21.7936924 202.636636,21.1922622 C202.452901,20.5908319 202.361036,20.213016 202.361036,20.0588032 C202.361036,19.4727942 202.598356,19.1026888 203.073003,18.948476 C203.54765,18.7942631 204.106501,18.6708946 204.749571,18.5783669 L204.749571,18.0694669 L194.736095,18.0694669 L194.736095,18.5783669 C195.777257,18.640052 196.489217,18.7634205 196.871997,18.948476 C197.254777,19.1335314 197.583963,19.3802683 197.859564,19.6886941 C198.318901,20.9532397 198.824163,22.3411349 199.375366,23.8524211 C199.926569,25.3637073 200.48542,26.8981025 201.051934,28.4556526 C201.618449,30.0132027 202.177299,31.5321768 202.728503,33.0126205 C203.279706,34.4930642 203.769657,35.8269856 204.198371,37.0144248 C204.627084,38.201864 204.979237,39.1733906 205.254838,39.9290337 C205.53044,40.6846768 205.698861,41.124177 205.760105,41.2475473 C205.729483,41.4017601 205.652928,41.7101813 205.530439,42.1728199 C205.407949,42.6354586 205.247184,43.1983272 205.048138,43.8614425 C204.849092,44.5245579 204.619428,45.2647687 204.359137,46.082097 C204.098847,46.8994252 203.800283,47.7244518 203.463437,48.5572013 L203.37157,48.5572013 C202.942856,48.1562478 202.521804,47.7707214 202.108402,47.4006105 C201.694999,47.0304996 201.182082,46.8454469 200.569634,46.8454469 C199.957186,46.8454469 199.467235,47.0459206 199.099766,47.4468741 C198.732297,47.8478276 198.548565,48.3567225 198.548565,48.973574 C198.548565,49.5904256 198.808852,50.0916099 199.329433,50.4771421 C199.850013,50.8626743 200.416519,51.0554375 201.028968,51.0554375 C201.733283,51.0554375 202.422277,50.7932796 203.09597,50.2689558 C203.769662,49.744632 204.290236,48.8964738 204.657704,47.7244559 C205.178285,46.0897994 205.721825,44.362641 206.288339,42.542929 C206.854854,40.723217 207.42136,38.8881112 207.987874,37.0375566 C208.554389,35.187002 209.113239,33.3827384 209.664443,31.6247115 C210.215646,29.8666847 210.720908,28.2551842 211.180244,26.7901618 C211.63958,25.3251394 212.037665,24.0529022 212.374512,22.9734121 C212.711358,21.8939219 212.956334,21.107448 213.109446,20.6139668 C213.262558,20.1204855 213.461601,19.7426696 213.70658,19.4805077 C213.951559,19.2183458 214.234812,19.0255826 214.556347,18.9022123 C214.877883,18.778842 215.214724,18.7017367 215.566882,18.6708942 C215.919039,18.6400516 216.278847,18.6092095 216.646316,18.5783669 L216.646316,18.5783669 Z M254.770018,39.9521655 L254.770018,39.4895292 C253.330765,39.2736312 252.075265,38.7955784 251.003481,38.0553566 C249.931697,37.3151347 248.829307,36.1431344 247.696278,34.5393204 C246.96134,33.4906728 246.126892,32.2878304 245.192909,30.930757 C244.258925,29.5736836 243.393855,28.309157 242.597673,27.1371391 C242.138337,26.489445 241.663697,25.9034448 241.173738,25.379121 C240.68378,24.8547972 240.178518,24.4538497 239.657937,24.1762665 L239.657937,24.0374756 C240.668476,23.6982073 241.633067,23.2818388 242.55174,22.7883575 C243.470412,22.2948763 244.274238,21.7011656 244.963242,21.0072076 C245.652246,20.3132497 246.203441,19.5113547 246.616844,18.6014987 C247.030246,17.6916427 247.236944,16.6661424 247.236944,15.5249671 C247.236944,13.6744125 246.823548,12.1400173 245.996743,10.9217356 C245.169938,9.70345379 244.082859,8.73963774 242.735473,8.03025848 C241.41871,7.32087922 239.964167,6.90451068 238.371802,6.78114038 C236.779437,6.65777007 234.957431,6.59608584 232.90573,6.59608584 L229.690394,6.59608584 C228.37363,6.59608584 227.056887,6.60379637 225.740123,6.61921766 C224.42336,6.63463895 223.244415,6.64234948 222.203253,6.64234948 L220.319985,6.64234948 L220.319985,7.10498581 C221.14679,7.22835612 221.843439,7.37485616 222.409953,7.54449033 C222.976468,7.7141245 223.489385,8.04567722 223.948722,8.53915844 C224.132456,8.7242139 224.27791,9.02492451 224.385089,9.4412993 C224.492267,9.85767408 224.568822,10.3203058 224.614756,10.8292083 C224.660689,11.3381108 224.691311,11.8778478 224.706622,12.4484355 C224.721933,13.0190231 224.729589,13.5818917 224.729589,14.1370581 L224.729589,23.1584666 L224.729589,25.8417573 C224.729589,26.7670346 224.721933,27.6691665 224.706622,28.5481799 C224.691311,29.4271933 224.676,30.2367988 224.660689,30.9770206 C224.645378,31.7172425 224.637722,32.3032426 224.637722,32.7350387 C224.637722,33.2285199 224.622411,33.7374148 224.591789,34.2617386 C224.561166,34.7860624 224.522889,35.2795362 224.476955,35.7421749 C224.431022,36.2048135 224.362122,36.6211821 224.270255,36.991293 C224.178388,37.3614039 224.0559,37.6389829 223.902788,37.8240384 C223.504697,38.3175196 222.953502,38.687625 222.249187,38.9343656 C221.544871,39.1811062 220.809945,39.3661589 220.044384,39.4895292 L220.044384,39.9521655 L234.743065,39.9521655 L234.743065,39.4895292 C233.487547,39.427844 232.507644,39.1888177 231.803329,38.7724429 C231.099014,38.3560681 230.624374,37.9474101 230.379394,37.5464566 C230.07317,37.0838179 229.90475,36.4978178 229.874127,35.7884385 C229.843505,35.0790593 229.812883,34.2309011 229.782261,33.2439387 C229.751638,32.2261337 229.736327,30.977028 229.736327,29.4965844 L229.736327,24.2687938 C230.165041,24.2996364 230.517193,24.3150574 230.792795,24.3150574 C231.099019,24.3150574 231.543037,24.3767417 232.124863,24.500112 C232.921045,24.6543249 233.678938,25.0398513 234.398565,25.6567028 C235.118192,26.2735543 235.784219,26.9366598 236.396667,27.646039 C237.131605,28.5096312 237.76701,29.2883946 238.302902,29.9823525 C238.838794,30.6763105 239.336401,31.3625475 239.795737,32.0410842 C240.255073,32.7196209 240.706747,33.4058579 241.150772,34.0998159 C241.594796,34.7937739 242.107714,35.5725372 242.68954,36.4361294 C243.179498,37.1455086 243.539306,37.6775351 243.768974,38.0322247 C243.998642,38.3869144 244.190029,38.6567829 244.343141,38.8418383 C244.496253,39.0268938 244.634052,39.1888149 244.756542,39.3276065 C244.879031,39.4663981 245.078074,39.6745823 245.353676,39.9521655 L254.770018,39.9521655 Z M241.954606,15.2473853 C241.954606,16.0801349 241.847429,16.8820298 241.633072,17.6530942 C241.418715,18.4241586 241.089529,19.1412378 240.645504,19.8043532 C240.20148,20.4674686 239.627318,21.0611793 238.923003,21.5855031 C238.218687,22.1098269 237.376584,22.5261954 236.396667,22.8346212 C235.386128,23.1738895 234.337326,23.3974948 233.250231,23.5054439 C232.163135,23.6133929 230.991846,23.6673666 229.736327,23.6673666 L229.736327,21.9093485 L229.736327,18.5783669 C229.736327,17.3138213 229.743983,16.0030314 229.759294,14.6459581 C229.774605,13.2888847 229.797572,12.0706212 229.828194,10.991131 C229.858816,10.2817518 229.881783,9.73430424 229.897094,9.34877203 C229.912405,8.96323982 229.927716,8.66252921 229.943027,8.44663118 C229.958339,8.23073314 229.981305,8.05339099 230.011927,7.91459939 C230.04255,7.7758078 230.073172,7.6138867 230.103794,7.42883124 C230.318151,7.39798867 230.62437,7.36714655 231.022462,7.33630398 C231.420553,7.3054614 231.941126,7.29004034 232.584197,7.29004034 C233.472246,7.29004034 234.322005,7.36714563 235.133499,7.52135851 C235.944993,7.67557139 236.718197,7.9223083 237.453135,8.26157664 C238.92301,8.9709559 240.040711,9.92706143 240.806271,11.1299219 C241.571831,12.3327824 241.954606,13.7052565 241.954606,15.2473853 L241.954606,15.2473853 Z M278.516573,28.6175753 C278.516573,26.7670208 278.187387,25.1555203 277.529005,23.7830257 C276.870624,22.410531 276.02852,21.2693728 275.002669,20.3595168 C273.976819,19.4496608 272.836151,18.7634237 271.580633,18.3007851 C270.325114,17.8381464 269.084925,17.6068306 267.860029,17.6068306 C266.206419,17.6068306 264.698289,17.9152517 263.335592,18.5321033 C261.972894,19.1489548 260.809261,19.9662708 259.844655,20.9840758 C258.880049,22.0018809 258.129811,23.1738812 257.593919,24.500112 C257.058027,25.8263428 256.790085,27.1988168 256.790085,28.6175753 C256.790085,30.5915002 257.134582,32.3109481 257.823586,33.7759705 C258.51259,35.2409928 259.400627,36.4438353 260.487722,37.3845339 C261.574817,38.3252325 262.761418,39.0114695 264.047559,39.4432656 C265.3337,39.8750616 266.573889,40.0909564 267.768162,40.0909564 C269.207416,40.0909564 270.577748,39.7979563 271.8792,39.2119474 C273.180652,38.6259384 274.321319,37.8086224 275.301236,36.7599748 C276.281153,35.7113272 277.062013,34.4853532 277.643839,33.082016 C278.225664,31.6786787 278.516573,30.1905467 278.516573,28.6175753 L278.516573,28.6175753 Z M274.244769,28.5713117 C274.244769,29.6508019 274.129936,30.8228022 273.900268,32.0873478 C273.6706,33.3518935 273.303137,34.5316043 272.797867,35.6265158 C272.292598,36.7214273 271.634226,37.6312696 270.822732,38.3560702 C270.011238,39.0808707 269.00837,39.4432656 267.814096,39.4432656 C266.619822,39.4432656 265.593987,39.157976 264.73656,38.5873883 C263.879132,38.0168007 263.174827,37.2457478 262.623624,36.2742067 C262.072421,35.3026655 261.674336,34.1846389 261.429356,32.9200932 C261.184377,31.6555476 261.061889,30.3139157 261.061889,28.8951571 C261.061889,27.5997689 261.207344,26.3275317 261.498256,25.0784074 C261.789169,23.829283 262.217876,22.7035459 262.784391,21.7011621 C263.350905,20.6987784 264.032244,19.8891729 264.828426,19.2723214 C265.624609,18.6554699 266.527956,18.3470487 267.538496,18.3470487 C268.794014,18.3470487 269.850471,18.6786015 270.707899,19.3417168 C271.565326,20.0048322 272.25432,20.8452798 272.774901,21.8630849 C273.295482,22.8808899 273.6706,23.991206 273.900268,25.1940665 C274.129936,26.396927 274.244769,27.5226641 274.244769,28.5713117 L274.244769,28.5713117 Z M302.400928,33.3364659 L302.033461,33.1514114 C301.298523,34.3851145 300.379865,35.3180884 299.277458,35.9503612 C298.175052,36.5826341 296.674576,36.8987657 294.775987,36.8987657 C293.581713,36.8987657 292.50229,36.6751604 291.537684,36.227943 C290.573078,35.7807257 289.753941,35.1484623 289.080248,34.3311341 C288.406555,33.5138058 287.885982,32.5268581 287.518513,31.3702615 C287.151045,30.2136649 286.967313,28.9414277 286.967313,27.5535118 C286.967313,26.2889661 287.135734,25.1015448 287.47258,23.991212 C287.809426,22.8808792 288.268756,21.9093527 288.850581,21.0766031 C289.432407,20.2438535 290.121401,19.5807481 290.917583,19.0872669 C291.713766,18.5937856 292.586491,18.3470487 293.535786,18.3470487 C294.821927,18.3470487 295.763552,18.7248646 296.360689,19.4805077 C296.957826,20.2361509 297.25639,21.1845459 297.25639,22.3257212 C297.25639,22.9425727 297.179835,23.4668887 297.026723,23.8986847 C297.149212,24.3613234 297.417154,24.7468498 297.830557,25.0552756 C298.243959,25.3637013 298.710944,25.5179119 299.231525,25.5179119 C299.874595,25.5179119 300.433446,25.2788855 300.908093,24.8008256 C301.38274,24.3227657 301.62006,23.7598971 301.62006,23.112203 C301.62006,22.2177682 301.38274,21.4312943 300.908093,20.7527577 C300.433446,20.074221 299.813351,19.5036419 299.047791,19.0410032 C298.282231,18.5783646 297.409506,18.2236803 296.429589,17.9769397 C295.449672,17.730199 294.454459,17.6068306 293.443919,17.6068306 C291.943421,17.6068306 290.557778,17.9152517 289.286948,18.5321033 C288.016119,19.1489548 286.921384,19.9662708 286.002712,20.9840758 C285.08404,22.0018809 284.364424,23.1815917 283.843843,24.5232438 C283.323262,25.8648959 283.062976,27.2759226 283.062976,28.7563662 C283.062976,30.3293376 283.315607,31.8097591 283.820876,33.197675 C284.326146,34.585591 285.022795,35.796144 285.910845,36.8293703 C286.798895,37.8625966 287.870663,38.6644915 289.126182,39.2350792 C290.3817,39.8056669 291.744377,40.0909564 293.214252,40.0909564 C294.377904,40.0909564 295.457327,39.9213248 296.452555,39.5820565 C297.447784,39.2427881 298.343475,38.7570248 299.139658,38.124752 C299.935841,37.4924792 300.609523,36.7676895 301.160727,35.9503612 C301.71193,35.133033 302.125326,34.2617432 302.400928,33.3364659 L302.400928,33.3364659 Z M328.995352,39.9521655 L328.995352,39.4895292 C328.413526,39.4895292 327.862331,39.4586871 327.34175,39.3970019 C326.82117,39.3353168 326.438395,39.2736325 326.193416,39.2119474 C325.458478,38.656781 324.555131,37.6698334 323.483347,36.2510749 C322.595297,35.0790569 321.554151,33.590925 320.359877,31.7866342 C319.165603,29.9823435 317.894792,28.0470009 316.547407,25.9805482 C317.374212,25.2094838 318.262248,24.3844573 319.211543,23.5054439 C320.160837,22.6264304 321.125428,21.7705618 322.105345,20.9378122 C322.748416,20.3826458 323.445065,19.9508562 324.195314,19.6424305 C324.945563,19.3340047 325.649868,19.0949783 326.308249,18.9253441 C326.966631,18.75571 327.540793,18.6477626 328.030751,18.6014987 C328.52071,18.5552348 328.811618,18.5321033 328.903485,18.5321033 L328.903485,18.0694669 L317.649808,18.0694669 L317.649808,18.5321033 C318.017277,18.5321033 318.415362,18.5629454 318.844076,18.6246305 C319.272789,18.6863157 319.670875,18.763421 320.038343,18.8559487 C320.405812,18.9484764 320.712032,19.0641344 320.957011,19.2029259 C321.20199,19.3417175 321.324478,19.5190597 321.324478,19.7349577 C321.324478,19.9508558 321.033569,20.3903559 320.451744,21.0534713 C319.869918,21.7165867 319.134991,22.4876395 318.246942,23.366653 C317.358892,24.2456664 316.394301,25.1555087 315.353139,26.0962073 C314.311977,27.0369059 313.347386,27.8773535 312.459336,28.6175753 L312.459336,6.50355858 L312.091869,6.50355858 L305.98273,9.32564021 L305.98273,9.60322201 C306.380821,9.81912005 306.801873,10.0427254 307.245898,10.2740447 C307.689923,10.505364 308.019108,10.6981272 308.233465,10.8523401 C308.447822,11.006553 308.57031,11.153053 308.600932,11.2918446 C308.631555,11.4306362 308.646866,11.6233994 308.646866,11.87014 L308.646866,38.0090929 C308.646866,38.5951019 308.363613,38.9729178 307.797098,39.1425519 C307.230584,39.3121861 306.595178,39.427844 305.890863,39.4895292 L305.890863,39.9521655 L315.031605,39.9521655 L315.031605,39.4895292 C314.725381,39.427844 314.419162,39.3815809 314.112938,39.3507383 C313.806714,39.3198957 313.531116,39.265922 313.286137,39.1888156 C313.041158,39.1117091 312.842115,38.9960512 312.689003,38.8418383 C312.535891,38.6876254 312.459336,38.4717306 312.459336,38.1941475 L312.459336,29.1264753 C312.581826,29.0647902 312.696658,29.0262375 312.803836,29.0108162 C312.911015,28.9953949 313.041158,28.9876844 313.19427,28.9876844 C313.592361,28.9876844 314.03638,29.3269477 314.526338,30.0054843 C314.985674,30.6223359 315.529214,31.3856782 316.156973,32.2955342 C316.784732,33.2053902 317.38186,34.092101 317.948375,34.9556931 C318.514889,35.8192853 319.00484,36.5826276 319.418243,37.245743 C319.831645,37.9088584 320.038343,38.3329374 320.038343,38.5179929 C320.038343,38.949789 319.831645,39.2119469 319.418243,39.3044747 C319.00484,39.3970024 318.491923,39.4586866 317.879475,39.4895292 L317.879475,39.9521655 L328.995352,39.9521655 Z M346.862435,33.197675 C346.862435,31.6247036 346.380139,30.2984928 345.415533,29.2190026 C344.450927,28.1395124 343.279638,27.4301438 341.90163,27.0908754 C341.319804,26.9366626 340.63081,26.7747415 339.834628,26.6051073 C339.038445,26.4354731 338.303518,26.273552 337.629826,26.1193391 C336.649909,25.8725985 335.838427,25.5024932 335.195357,25.0090119 C334.552286,24.5155307 334.230756,23.6982147 334.230756,22.5570394 C334.230756,21.8476601 334.353243,21.2231073 334.598223,20.6833622 C334.843202,20.1436171 335.157077,19.6964065 335.539857,19.3417168 C335.922637,18.9870272 336.366655,18.7171587 336.871925,18.5321033 C337.377195,18.3470478 337.890112,18.2545215 338.410693,18.2545215 C339.26812,18.2545215 340.026013,18.408732 340.684395,18.7171578 C341.342777,19.0255836 341.932249,19.4650837 342.45283,20.0356713 C342.973411,20.606259 343.448051,21.2847855 343.876765,22.0712712 C344.305479,22.8577569 344.734186,23.7136256 345.1629,24.6389029 L345.530367,24.5463756 L344.979166,18.8096851 C344.091116,18.4704167 343.157147,18.1851272 342.17723,17.9538078 C341.197313,17.7224885 340.064301,17.6068306 338.77816,17.6068306 C337.767621,17.6068306 336.81834,17.7533306 335.930291,18.0463351 C335.042241,18.3393396 334.261381,18.7634187 333.587688,19.318585 C332.913995,19.8737514 332.378111,20.5368569 331.98002,21.3079213 C331.581929,22.0789857 331.382886,22.9425649 331.382886,23.8986847 C331.382886,25.2866007 331.742694,26.4740221 332.462321,27.4609845 C333.181947,28.447947 334.123572,29.1418945 335.287223,29.542848 C335.899671,29.758746 336.588665,29.9592198 337.354225,30.1442752 C338.119785,30.3293307 338.915956,30.4989623 339.742761,30.6531752 C340.783923,30.8690732 341.60306,31.2931523 342.200197,31.9254251 C342.797334,32.5576979 343.095898,33.3518824 343.095898,34.3080023 C343.095898,36.0660291 342.659535,37.3691084 341.786796,38.2172793 C340.914058,39.0654501 339.742768,39.4895292 338.272893,39.4895292 C337.262353,39.4895292 336.389628,39.2659239 335.65469,38.8187065 C334.919753,38.3714891 334.292003,37.80091 333.771422,37.1069521 C333.250841,36.4129941 332.806823,35.6573623 332.439354,34.840034 C332.071885,34.0227058 331.765666,33.2439424 331.520686,32.5037205 L331.153219,32.5037205 L331.153219,38.6105202 C332.163759,39.0731588 333.266149,39.4278431 334.460422,39.6745837 C335.654696,39.9213243 336.925507,40.0446928 338.272893,40.0446928 C339.405922,40.0446928 340.485345,39.9213243 341.511196,39.6745837 C342.537047,39.4278431 343.448049,39.0268956 344.244232,38.4717293 C345.040415,37.9165629 345.67582,37.1994837 346.150467,36.3204703 C346.625114,35.4414569 346.862435,34.4005355 346.862435,33.197675 L346.862435,33.197675 Z" id="SurveyRocks" fill-opacity="0.554744112" fill="#000000"></path>
            </g>
        </g>
    </g>
</svg>